# xmcd CD database file
#
# Track frame offsets:
#	150
#	21274
#	40827
#	58748
#	79405
#	102698
#	121201
#	141393
#	160585
#	178903
#	195856
#	223592
#
# Disc length: 3205 seconds
#
# Revision: 0
# Processed by: cddbd v1.4PL0 Copyright (c) Steve Scherf et al.
# Submitted via: CDex 1.51
#
DISCID=ab0c830c
DTITLE=Verios - Merengue La Eclosión De Un Ritmo Trepidante
DYEAR=1900
DGENRE=Merengue
TTITLE0=Kinito Méndez - Cachamba
TTITLE1=Rikarena - Cuando El Amor Se Daña
TTITLE2=Pochy Y Su Coco Band - El Ombliguito
TTITLE3=Alfrid - El Ventilador
TTITLE4=Proyecto 1 - El Tiburón
TTITLE5=Sin Fronteras - No Dejemos Que Muera El Amor
TTITLE6=Jossie Esteban Y La Patrulla - Me Gusta También
TTITLE7=Zona Roja - 1-800-Tu Papi
TTITLE8=Los Toros Band - Los Saxofones
TTITLE9=La Mákina - Que Hermosa Mujer
TTITLE10=Milly, Jocelyn Y Los Vecinos - Calimín Y Chulumén
TTITLE11=Maquinaria Band - Sube A La Máquina
EXTD=
EXTT0=
EXTT1=
EXTT2=
EXTT3=
EXTT4=
EXTT5=
EXTT6=
EXTT7=
EXTT8=
EXTT9=
EXTT10=
EXTT11=
PLAYORDER=
